<svg xmlns="http://www.w3.org/2000/svg" xmlns:xlink="http://www.w3.org/1999/xlink" width="1920" zoomAndPan="magnify" viewBox="0 0 1440 809.999993" height="1080" preserveAspectRatio="xMidYMid meet" version="1.0"><defs><g/><clipPath id="cac438b054"><path d="M 0.800781 0.0390625 L 1409.839844 0.0390625 L 1409.839844 347.320312 L 0.800781 347.320312 Z M 0.800781 0.0390625 " clip-rule="nonzero"/></clipPath><clipPath id="eb2c39b3fd"><path d="M 0.972656 0.171875 L 1405.613281 0.171875 L 1405.613281 343.070312 L 0.972656 343.070312 Z M 0.972656 0.171875 " clip-rule="nonzero"/></clipPath><clipPath id="7edb648a73"><rect x="0" width="1410" y="0" height="348"/></clipPath><clipPath id="6e107e8914"><rect x="0" width="1410" y="0" height="348"/></clipPath></defs><rect x="-144" width="1728" fill="#ffffff" y="-80.999999" height="971.999992" fill-opacity="1"/><g transform="matrix(1, 0, 0, 1, 16, 233)"><g clip-path="url(#6e107e8914)"><g clip-path="url(#cac438b054)"><g transform="matrix(1, 0, 0, 1, 0, 0.000000000000028422)"><g clip-path="url(#7edb648a73)"><g clip-path="url(#eb2c39b3fd)"><path fill="#ffffff" d="M 0.972656 0.179688 L 1405.613281 0.179688 L 1405.613281 343.0625 L 0.972656 343.0625 Z M 0.972656 0.179688 " fill-opacity="1" fill-rule="nonzero"/></g><g fill="#1a2a44" fill-opacity="1"><g transform="translate(125.776577, 233.909774)"><g><path d="M 46.078125 -125.8125 L 46.078125 -79.359375 L 123 -79.359375 L 123 -55.078125 L 46.078125 -55.078125 L 46.078125 0 L 14.609375 0 L 14.609375 -150.09375 L 125.453125 -150.09375 L 125.453125 -125.8125 Z M 46.078125 -125.8125 "/></g></g></g><g fill="#1a2a44" fill-opacity="1"><g transform="translate(297.492445, 233.909774)"><g><path d="M 60.59375 1.671875 C 44.332031 1.671875 31.882812 -2.285156 23.25 -10.203125 C 14.625 -18.128906 10.3125 -29.457031 10.3125 -44.1875 L 10.3125 -117.921875 L 35.03125 -117.921875 L 35.03125 -46.109375 C 35.03125 -36.796875 37.25 -29.722656 41.6875 -24.890625 C 46.132812 -20.066406 52.660156 -17.65625 61.265625 -17.65625 C 70.085938 -17.65625 76.875 -20.179688 81.625 -25.234375 C 86.375 -30.285156 88.75 -37.523438 88.75 -46.953125 L 88.75 -117.921875 L 113.484375 -117.921875 L 113.484375 -45.453125 C 113.484375 -30.492188 108.859375 -18.898438 99.609375 -10.671875 C 90.359375 -2.441406 77.351562 1.671875 60.59375 1.671875 Z M 60.59375 1.671875 "/></g></g></g><g fill="#1a2a44" fill-opacity="1"><g transform="translate(430.771216, 233.909774)"><g><path d="M 43.921875 1.671875 C 31.679688 1.671875 22.273438 -0.976562 15.703125 -6.28125 C 9.140625 -11.582031 4.769531 -20.144531 2.59375 -31.96875 L 27.15625 -35.5625 C 28.15625 -29.488281 30.023438 -24.984375 32.765625 -22.046875 C 35.503906 -19.117188 39.273438 -17.65625 44.078125 -17.65625 C 48.992188 -17.65625 52.722656 -19.300781 55.265625 -22.59375 C 57.804688 -25.882812 59.078125 -30.597656 59.078125 -36.734375 L 59.078125 -98.59375 L 35.53125 -98.59375 L 35.53125 -117.921875 L 83.71875 -117.921875 L 83.71875 -37.328125 C 83.71875 -25.054688 80.222656 -15.488281 73.234375 -8.625 C 66.253906 -1.757812 56.484375 1.671875 43.921875 1.671875 Z M 43.921875 1.671875 "/></g></g></g><g fill="#1a2a44" fill-opacity="1"><g transform="translate(535.563898, 233.909774)"><g><path d="M 11.484375 0 L 11.484375 -117.921875 L 36.203125 -117.921875 L 36.203125 0 Z M 11.484375 0 "/></g></g></g><g fill="#1a2a44" fill-opacity="1"><g transform="translate(592.600485, 233.909774)"><g><path d="M 92.609375 0 L 65.203125 -44.78125 L 36.203125 -44.78125 L 36.203125 0 L 11.484375 0 L 11.484375 -117.921875 L 70.484375 -117.921875 C 84.566406 -117.921875 95.429688 -114.894531 103.078125 -108.84375 C 110.734375 -102.789062 114.5625 -94.101562 114.5625 -82.78125 C 114.5625 -74.519531 112.210938 -67.390625 107.515625 -61.390625 C 102.828125 -55.390625 96.488281 -51.441406 88.5 -49.546875 L 120.4375 0 Z M 89.671875 -81.765625 C 89.671875 -93.097656 82.410156 -98.765625 67.890625 -98.765625 L 36.203125 -98.765625 L 36.203125 -63.9375 L 68.5625 -63.9375 C 75.488281 -63.9375 80.738281 -65.5 84.3125 -68.625 C 87.882812 -71.75 89.671875 -76.128906 89.671875 -81.765625 Z M 89.671875 -81.765625 "/></g></g></g><g fill="#1a2a44" fill-opacity="1"><g transform="translate(725.879256, 233.909774)"><g><path d="M 11.484375 0 L 11.484375 -117.921875 L 36.203125 -117.921875 L 36.203125 0 Z M 11.484375 0 "/></g></g></g><g fill="#1a2a44" fill-opacity="1"><g transform="translate(782.915843, 233.909774)"><g><path d="M 107.78125 -33.984375 C 107.78125 -22.429688 103.488281 -13.597656 94.90625 -7.484375 C 86.332031 -1.378906 73.75 1.671875 57.15625 1.671875 C 42.019531 1.671875 30.144531 -1.003906 21.53125 -6.359375 C 12.925781 -11.710938 7.394531 -19.832031 4.9375 -30.71875 L 28.828125 -34.65625 C 30.453125 -28.40625 33.609375 -23.867188 38.296875 -21.046875 C 42.992188 -18.234375 49.503906 -16.828125 57.828125 -16.828125 C 75.085938 -16.828125 83.71875 -22.070312 83.71875 -32.5625 C 83.71875 -35.90625 82.726562 -38.664062 80.75 -40.84375 C 78.769531 -43.019531 75.976562 -44.832031 72.375 -46.28125 C 68.769531 -47.726562 61.851562 -49.488281 51.625 -51.5625 C 42.800781 -53.625 36.65625 -55.28125 33.1875 -56.53125 C 29.71875 -57.789062 26.585938 -59.269531 23.796875 -60.96875 C 21.003906 -62.675781 18.628906 -64.726562 16.671875 -67.125 C 14.722656 -69.519531 13.203125 -72.335938 12.109375 -75.578125 C 11.015625 -78.816406 10.46875 -82.523438 10.46875 -86.703125 C 10.46875 -97.359375 14.476562 -105.519531 22.5 -111.1875 C 30.519531 -116.851562 42.1875 -119.6875 57.5 -119.6875 C 72.132812 -119.6875 83.125 -117.394531 90.46875 -112.8125 C 97.820312 -108.238281 102.554688 -100.679688 104.671875 -90.140625 L 80.703125 -86.875 C 79.472656 -91.945312 76.972656 -95.765625 73.203125 -98.328125 C 69.429688 -100.898438 64.023438 -102.1875 56.984375 -102.1875 C 42.015625 -102.1875 34.53125 -97.5 34.53125 -88.125 C 34.53125 -85.0625 35.328125 -82.550781 36.921875 -80.59375 C 38.515625 -78.644531 40.875 -76.984375 44 -75.609375 C 47.125 -74.242188 53.46875 -72.53125 63.03125 -70.46875 C 74.363281 -68.070312 82.472656 -65.851562 87.359375 -63.8125 C 92.253906 -61.78125 96.125 -59.410156 98.96875 -56.703125 C 101.820312 -53.992188 104.003906 -50.753906 105.515625 -46.984375 C 107.023438 -43.222656 107.78125 -38.890625 107.78125 -33.984375 Z M 107.78125 -33.984375 "/></g></g></g><g fill="#1a2a44" fill-opacity="1"><g transform="translate(906.727146, 233.909774)"><g><path d="M 11.484375 0 L 11.484375 -117.921875 L 104.34375 -117.921875 L 104.34375 -98.84375 L 36.203125 -98.84375 L 36.203125 -69.21875 L 99.234375 -69.21875 L 99.234375 -50.140625 L 36.203125 -50.140625 L 36.203125 -19.078125 L 107.78125 -19.078125 L 107.78125 0 Z M 11.484375 0 "/></g></g></g></g></g></g></g></g></svg>