<svg xmlns="http://www.w3.org/2000/svg" xmlns:xlink="http://www.w3.org/1999/xlink" width="1920" zoomAndPan="magnify" viewBox="0 0 1440 809.999993" height="1080" preserveAspectRatio="xMidYMid meet" version="1.0"><defs><g/><clipPath id="94d577cfb5"><path d="M 0.71875 0.078125 L 1417.679688 0.078125 L 1417.679688 349.28125 L 0.71875 349.28125 Z M 0.71875 0.078125 " clip-rule="nonzero"/></clipPath><clipPath id="b503d7c527"><path d="M 0.941406 0.109375 L 1413.394531 0.109375 L 1413.394531 344.914062 L 0.941406 344.914062 Z M 0.941406 0.109375 " clip-rule="nonzero"/></clipPath><clipPath id="43d3ab9f07"><rect x="0" width="1418" y="0" height="350"/></clipPath><clipPath id="110278b43d"><rect x="0" width="1418" y="0" height="350"/></clipPath></defs><g transform="matrix(1, 0, 0, 1, 12, 232)"><g clip-path="url(#110278b43d)"><g clip-path="url(#94d577cfb5)"><g transform="matrix(1, 0, 0, 1, 0, 0.000000000000028422)"><g clip-path="url(#43d3ab9f07)"><g clip-path="url(#b503d7c527)"><path fill="#ffffff" d="M 0.941406 0.113281 L 1413.394531 0.113281 L 1413.394531 344.90625 L 0.941406 344.90625 Z M 0.941406 0.113281 " fill-opacity="1" fill-rule="nonzero"/></g><g fill="#1a2a44" fill-opacity="1"><g transform="translate(126.436223, 235.145752)"><g><path d="M 46.34375 -126.515625 L 46.34375 -79.8125 L 123.6875 -79.8125 L 123.6875 -55.390625 L 46.34375 -55.390625 L 46.34375 0 L 14.703125 0 L 14.703125 -150.9375 L 126.15625 -150.9375 L 126.15625 -126.515625 Z M 46.34375 -126.515625 "/></g></g></g><g fill="#1a2a44" fill-opacity="1"><g transform="translate(299.107696, 235.145752)"><g><path d="M 60.9375 1.6875 C 44.582031 1.6875 32.0625 -2.296875 23.375 -10.265625 C 14.695312 -18.234375 10.359375 -29.625 10.359375 -44.4375 L 10.359375 -118.578125 L 35.234375 -118.578125 L 35.234375 -46.375 C 35.234375 -37 37.460938 -29.882812 41.921875 -25.03125 C 46.390625 -20.175781 52.953125 -17.75 61.609375 -17.75 C 70.484375 -17.75 77.304688 -20.285156 82.078125 -25.359375 C 86.859375 -30.441406 89.25 -37.726562 89.25 -47.21875 L 89.25 -118.578125 L 114.109375 -118.578125 L 114.109375 -45.703125 C 114.109375 -30.660156 109.457031 -19 100.15625 -10.71875 C 90.863281 -2.445312 77.789062 1.6875 60.9375 1.6875 Z M 60.9375 1.6875 "/></g></g></g><g fill="#1a2a44" fill-opacity="1"><g transform="translate(433.128168, 235.145752)"><g><path d="M 44.15625 1.6875 C 31.851562 1.6875 22.398438 -0.976562 15.796875 -6.3125 C 9.203125 -11.644531 4.804688 -20.257812 2.609375 -32.15625 L 27.3125 -35.765625 C 28.320312 -29.648438 30.203125 -25.117188 32.953125 -22.171875 C 35.703125 -19.222656 39.492188 -17.75 44.328125 -17.75 C 49.273438 -17.75 53.023438 -19.40625 55.578125 -22.71875 C 58.128906 -26.03125 59.40625 -30.773438 59.40625 -36.953125 L 59.40625 -99.140625 L 35.734375 -99.140625 L 35.734375 -118.578125 L 84.1875 -118.578125 L 84.1875 -37.53125 C 84.1875 -25.1875 80.675781 -15.5625 73.65625 -8.65625 C 66.632812 -1.757812 56.800781 1.6875 44.15625 1.6875 Z M 44.15625 1.6875 "/></g></g></g><g fill="#1a2a44" fill-opacity="1"><g transform="translate(538.504025, 235.145752)"><g><path d="M 11.546875 0 L 11.546875 -118.578125 L 36.40625 -118.578125 L 36.40625 0 Z M 11.546875 0 "/></g></g></g><g fill="#1a2a44" fill-opacity="1"><g transform="translate(595.858022, 235.145752)"><g><path d="M 93.125 0 L 65.5625 -45.03125 L 36.40625 -45.03125 L 36.40625 0 L 11.546875 0 L 11.546875 -118.578125 L 70.875 -118.578125 C 85.03125 -118.578125 95.957031 -115.53125 103.65625 -109.4375 C 111.351562 -103.351562 115.203125 -94.617188 115.203125 -83.234375 C 115.203125 -74.929688 112.84375 -67.765625 108.125 -61.734375 C 103.40625 -55.703125 97.03125 -51.734375 89 -49.828125 L 121.109375 0 Z M 90.171875 -82.21875 C 90.171875 -93.613281 82.867188 -99.3125 68.265625 -99.3125 L 36.40625 -99.3125 L 36.40625 -64.296875 L 68.9375 -64.296875 C 75.90625 -64.296875 81.1875 -65.863281 84.78125 -69 C 88.375 -72.144531 90.171875 -76.550781 90.171875 -82.21875 Z M 90.171875 -82.21875 "/></g></g></g><g fill="#1a2a44" fill-opacity="1"><g transform="translate(729.878495, 235.145752)"><g><path d="M 11.546875 0 L 11.546875 -118.578125 L 36.40625 -118.578125 L 36.40625 0 Z M 11.546875 0 "/></g></g></g><g fill="#1a2a44" fill-opacity="1"><g transform="translate(787.232492, 235.145752)"><g><path d="M 108.375 -34.171875 C 108.375 -22.554688 104.0625 -13.675781 95.4375 -7.53125 C 86.8125 -1.382812 74.15625 1.6875 57.46875 1.6875 C 42.25 1.6875 30.3125 -1.003906 21.65625 -6.390625 C 13.007812 -11.773438 7.445312 -19.941406 4.96875 -30.890625 L 28.984375 -34.84375 C 30.617188 -28.5625 33.796875 -24.003906 38.515625 -21.171875 C 43.234375 -18.335938 49.78125 -16.921875 58.15625 -16.921875 C 75.507812 -16.921875 84.1875 -22.191406 84.1875 -32.734375 C 84.1875 -36.097656 83.1875 -38.875 81.1875 -41.0625 C 79.195312 -43.257812 76.390625 -45.085938 72.765625 -46.546875 C 69.140625 -48.003906 62.1875 -49.769531 51.90625 -51.84375 C 43.03125 -53.914062 36.847656 -55.582031 33.359375 -56.84375 C 29.878906 -58.113281 26.734375 -59.601562 23.921875 -61.3125 C 21.117188 -63.019531 18.734375 -65.078125 16.765625 -67.484375 C 14.804688 -69.898438 13.273438 -72.734375 12.171875 -75.984375 C 11.078125 -79.242188 10.53125 -82.976562 10.53125 -87.1875 C 10.53125 -97.90625 14.5625 -106.109375 22.625 -111.796875 C 30.6875 -117.492188 42.414062 -120.34375 57.8125 -120.34375 C 72.53125 -120.34375 83.582031 -118.039062 90.96875 -113.4375 C 98.363281 -108.84375 103.128906 -101.242188 105.265625 -90.640625 L 81.15625 -87.359375 C 79.914062 -92.460938 77.398438 -96.304688 73.609375 -98.890625 C 69.816406 -101.472656 64.382812 -102.765625 57.3125 -102.765625 C 42.25 -102.765625 34.71875 -98.050781 34.71875 -88.625 C 34.71875 -85.53125 35.519531 -83 37.125 -81.03125 C 38.726562 -79.070312 41.101562 -77.40625 44.25 -76.03125 C 47.394531 -74.65625 53.769531 -72.929688 63.375 -70.859375 C 74.78125 -68.453125 82.941406 -66.222656 87.859375 -64.171875 C 92.773438 -62.117188 96.664062 -59.734375 99.53125 -57.015625 C 102.394531 -54.296875 104.582031 -51.039062 106.09375 -47.25 C 107.613281 -43.46875 108.375 -39.109375 108.375 -34.171875 Z M 108.375 -34.171875 "/></g></g></g><g fill="#1a2a44" fill-opacity="1"><g transform="translate(911.73281, 235.145752)"><g><path d="M 11.546875 0 L 11.546875 -118.578125 L 104.921875 -118.578125 L 104.921875 -99.390625 L 36.40625 -99.390625 L 36.40625 -69.59375 L 99.78125 -69.59375 L 99.78125 -50.40625 L 36.40625 -50.40625 L 36.40625 -19.1875 L 108.375 -19.1875 L 108.375 0 Z M 11.546875 0 "/></g></g></g></g></g></g></g></g></svg>